<?xml version="1.0" encoding="utf-8"?>
<!-- Generator: Adobe Illustrator 26.3.1, SVG Export Plug-In . SVG Version: 6.00 Build 0)  -->
<svg version="1.1" id="Livello_1" xmlns="http://www.w3.org/2000/svg" xmlns:xlink="http://www.w3.org/1999/xlink" x="0px" y="0px"
	 viewBox="0 0 283.5 170.1" style="enable-background:new 0 0 283.5 170.1;" xml:space="preserve">
<style type="text/css">
	.st0{fill:#FFFFFF;}
	.st1{fill:#602483;}
	.st2{fill:#FFDF34;}
	.st3{fill:#E51435;}
	.st4{fill:#2CA43D;}
	.st5{fill:#0078B7;}
</style>
<g>
	<g>
		<path class="st0" d="M75.3,78.9h1.1v7.4h-1.1V78.9z"/>
		<path class="st0" d="M79.1,86.1c-0.5-0.2-0.9-0.4-1.2-0.7l0.4-0.8c0.3,0.3,0.6,0.5,1.1,0.6c0.4,0.2,0.9,0.2,1.4,0.2
			c0.6,0,1.1-0.1,1.4-0.3c0.3-0.2,0.5-0.5,0.5-0.8c0-0.3-0.1-0.5-0.2-0.6c-0.2-0.2-0.4-0.3-0.6-0.4s-0.6-0.2-1-0.3
			c-0.6-0.1-1-0.3-1.3-0.4c-0.3-0.1-0.6-0.3-0.9-0.6c-0.2-0.3-0.4-0.7-0.4-1.1c0-0.4,0.1-0.7,0.3-1.1s0.5-0.6,0.9-0.8
			s0.9-0.3,1.6-0.3c0.4,0,0.9,0.1,1.3,0.2c0.4,0.1,0.8,0.3,1.1,0.5l-0.3,0.8c-0.3-0.2-0.6-0.3-1-0.4c-0.4-0.1-0.7-0.2-1-0.2
			c-0.6,0-1,0.1-1.3,0.3c-0.3,0.2-0.4,0.5-0.4,0.8c0,0.3,0.1,0.5,0.3,0.6s0.4,0.3,0.6,0.4c0.2,0.1,0.6,0.2,1,0.3
			c0.6,0.1,1,0.3,1.3,0.4c0.3,0.1,0.6,0.3,0.9,0.6s0.4,0.6,0.4,1.1c0,0.4-0.1,0.7-0.3,1.1c-0.2,0.3-0.5,0.6-1,0.8
			c-0.4,0.2-1,0.3-1.6,0.3C80.1,86.3,79.6,86.2,79.1,86.1z"/>
		<path class="st0" d="M86.5,79.8h-2.5v-0.9H90v0.9h-2.5v6.5h-1V79.8z"/>
		<path class="st0" d="M91.2,78.9h1.1v7.4h-1.1V78.9z"/>
		<path class="st0" d="M95.9,79.8h-2.5v-0.9h6.1v0.9H97v6.5h-1V79.8z"/>
		<path class="st0" d="M101.3,85.5c-0.5-0.6-0.8-1.4-0.8-2.4v-4.2h1.1V83c0,1.6,0.7,2.4,2.1,2.4c0.7,0,1.2-0.2,1.6-0.6
			c0.4-0.4,0.5-1,0.5-1.8v-4.2h1v4.2c0,1.1-0.3,1.9-0.8,2.4c-0.5,0.6-1.3,0.8-2.3,0.8S101.8,86,101.3,85.5z"/>
		<path class="st0" d="M110.2,79.8h-2.5v-0.9h6.1v0.9h-2.5v6.5h-1V79.8z"/>
		<path class="st0" d="M116.1,85.8c-0.6-0.3-1.1-0.8-1.4-1.4c-0.3-0.6-0.5-1.2-0.5-1.9s0.2-1.4,0.5-1.9c0.3-0.6,0.8-1,1.4-1.4
			s1.3-0.5,2-0.5c0.7,0,1.4,0.2,2,0.5c0.6,0.3,1.1,0.8,1.4,1.4c0.3,0.6,0.5,1.2,0.5,1.9s-0.2,1.4-0.5,1.9c-0.3,0.6-0.8,1-1.4,1.4
			c-0.6,0.3-1.3,0.5-2,0.5C117.4,86.3,116.7,86.2,116.1,85.8z M119.6,85c0.4-0.2,0.8-0.6,1-1c0.2-0.4,0.4-0.9,0.4-1.5
			c0-0.5-0.1-1-0.4-1.5c-0.2-0.4-0.6-0.8-1-1c-0.4-0.2-0.9-0.4-1.5-0.4s-1,0.1-1.5,0.4c-0.4,0.2-0.8,0.6-1,1
			c-0.2,0.4-0.4,0.9-0.4,1.5c0,0.5,0.1,1,0.4,1.5c0.2,0.4,0.6,0.8,1,1s0.9,0.4,1.5,0.4S119.2,85.3,119.6,85z"/>
		<path class="st0" d="M126.5,78.9h3.1c0.8,0,1.5,0.2,2.1,0.5s1.1,0.7,1.4,1.3c0.3,0.6,0.5,1.2,0.5,1.9c0,0.7-0.2,1.4-0.5,1.9
			c-0.3,0.6-0.8,1-1.4,1.3c-0.6,0.3-1.3,0.5-2.1,0.5h-3.1V78.9z M129.6,85.3c0.6,0,1.1-0.1,1.6-0.3c0.5-0.2,0.8-0.6,1-1
			s0.4-0.9,0.4-1.5c0-0.5-0.1-1-0.4-1.5c-0.2-0.4-0.6-0.7-1-1c-0.5-0.2-1-0.3-1.6-0.3h-2v5.5H129.6z"/>
		<path class="st0" d="M135.2,78.9h1.1v7.4h-1.1V78.9z"/>
		<path class="st0" d="M141.3,78.9h1.1v7.4h-1.1V78.9z"/>
		<path class="st0" d="M145.1,86.1c-0.5-0.2-0.9-0.4-1.2-0.7l0.4-0.8c0.3,0.3,0.6,0.5,1.1,0.6s0.9,0.2,1.4,0.2
			c0.6,0,1.1-0.1,1.4-0.3c0.3-0.2,0.5-0.5,0.5-0.8c0-0.3-0.1-0.5-0.2-0.6s-0.4-0.3-0.6-0.4c-0.2-0.1-0.6-0.2-1-0.3
			c-0.6-0.1-1-0.3-1.3-0.4c-0.3-0.1-0.6-0.3-0.9-0.6c-0.2-0.3-0.4-0.7-0.4-1.1c0-0.4,0.1-0.7,0.3-1.1c0.2-0.3,0.5-0.6,0.9-0.8
			s0.9-0.3,1.6-0.3c0.4,0,0.9,0.1,1.3,0.2c0.4,0.1,0.8,0.3,1.1,0.5l-0.3,0.8c-0.3-0.2-0.6-0.3-1-0.4c-0.4-0.1-0.7-0.2-1-0.2
			c-0.6,0-1,0.1-1.3,0.3c-0.3,0.2-0.4,0.5-0.4,0.8c0,0.3,0.1,0.5,0.3,0.6s0.4,0.3,0.6,0.4c0.2,0.1,0.6,0.2,1,0.3
			c0.6,0.1,1,0.3,1.3,0.4c0.3,0.1,0.6,0.3,0.9,0.6c0.2,0.3,0.4,0.6,0.4,1.1c0,0.4-0.1,0.7-0.3,1.1c-0.2,0.3-0.5,0.6-1,0.8
			c-0.4,0.2-1,0.3-1.6,0.3C146.2,86.3,145.7,86.2,145.1,86.1z"/>
		<path class="st0" d="M152.5,79.8H150v-0.9h6.1v0.9h-2.5v6.5h-1V79.8z"/>
		<path class="st0" d="M162.2,86.2l-1.6-2.3c-0.2,0-0.4,0-0.5,0h-1.8v2.2h-1.1v-7.4h2.9c1,0,1.7,0.2,2.3,0.7
			c0.5,0.5,0.8,1.1,0.8,1.9c0,0.6-0.1,1.1-0.4,1.5s-0.7,0.7-1.2,0.9l1.8,2.5H162.2z M161.6,82.7c0.4-0.3,0.5-0.7,0.5-1.2
			c0-0.5-0.2-0.9-0.5-1.2s-0.9-0.4-1.5-0.4h-1.8v3.3h1.8C160.8,83.1,161.3,82.9,161.6,82.7z"/>
		<path class="st0" d="M165.7,85.5c-0.5-0.6-0.8-1.4-0.8-2.4v-4.2h1.1V83c0,1.6,0.7,2.4,2.1,2.4c0.7,0,1.2-0.2,1.6-0.6
			c0.4-0.4,0.5-1,0.5-1.8v-4.2h1v4.2c0,1.1-0.3,1.9-0.8,2.4c-0.5,0.6-1.3,0.8-2.3,0.8C167,86.3,166.2,86,165.7,85.5z"/>
		<path class="st0" d="M178.8,85.3v0.9h-6.2v-0.7l4.6-5.7h-4.6v-0.9h6v0.7l-4.6,5.7H178.8z"/>
		<path class="st0" d="M180.2,78.9h1.1v7.4h-1.1V78.9z"/>
		<path class="st0" d="M184.8,85.8c-0.6-0.3-1.1-0.8-1.4-1.4s-0.5-1.2-0.5-1.9s0.2-1.4,0.5-1.9c0.3-0.6,0.8-1,1.4-1.4s1.3-0.5,2-0.5
			c0.7,0,1.4,0.2,2,0.5s1.1,0.8,1.4,1.4s0.5,1.2,0.5,1.9s-0.2,1.4-0.5,1.9s-0.8,1-1.4,1.4s-1.3,0.5-2,0.5
			C186,86.3,185.4,86.2,184.8,85.8z M188.2,85c0.4-0.2,0.8-0.6,1-1c0.2-0.4,0.4-0.9,0.4-1.5c0-0.5-0.1-1-0.4-1.5
			c-0.2-0.4-0.6-0.8-1-1c-0.4-0.2-0.9-0.4-1.5-0.4c-0.5,0-1,0.1-1.5,0.4c-0.4,0.2-0.8,0.6-1,1c-0.2,0.4-0.4,0.9-0.4,1.5
			c0,0.5,0.1,1,0.4,1.5s0.6,0.8,1,1s0.9,0.4,1.5,0.4C187.3,85.4,187.8,85.3,188.2,85z"/>
		<path class="st0" d="M198.7,78.9v7.4h-0.9l-4.4-5.5v5.5h-1.1v-7.4h0.9l4.4,5.5v-5.5H198.7z"/>
		<path class="st0" d="M206.2,85.3v0.9h-5.4v-7.4h5.2v0.9h-4.2V82h3.7v0.9h-3.7v2.4H206.2z"/>
		<path class="st0" d="M211.3,86.1c-0.5-0.2-0.9-0.4-1.2-0.7l0.4-0.8c0.3,0.3,0.6,0.5,1.1,0.6s0.9,0.2,1.4,0.2
			c0.6,0,1.1-0.1,1.4-0.3c0.3-0.2,0.5-0.5,0.5-0.8c0-0.3-0.1-0.5-0.2-0.6s-0.4-0.3-0.6-0.4c-0.2-0.1-0.6-0.2-1-0.3
			c-0.6-0.1-1-0.3-1.3-0.4c-0.3-0.1-0.6-0.3-0.9-0.6c-0.2-0.3-0.4-0.7-0.4-1.1c0-0.4,0.1-0.7,0.3-1.1c0.2-0.3,0.5-0.6,0.9-0.8
			s0.9-0.3,1.6-0.3c0.4,0,0.9,0.1,1.3,0.2c0.4,0.1,0.8,0.3,1.1,0.5l-0.3,0.8c-0.3-0.2-0.6-0.3-1-0.4c-0.4-0.1-0.7-0.2-1-0.2
			c-0.6,0-1,0.1-1.3,0.3c-0.3,0.2-0.4,0.5-0.4,0.8c0,0.3,0.1,0.5,0.3,0.6s0.4,0.3,0.6,0.4c0.2,0.1,0.6,0.2,1,0.3
			c0.6,0.1,1,0.3,1.3,0.4c0.3,0.1,0.6,0.3,0.9,0.6c0.2,0.3,0.4,0.6,0.4,1.1c0,0.4-0.1,0.7-0.3,1.1c-0.2,0.3-0.5,0.6-1,0.8
			c-0.4,0.2-1,0.3-1.6,0.3C212.4,86.3,211.8,86.2,211.3,86.1z"/>
		<path class="st0" d="M218.1,85.5c-0.5-0.6-0.8-1.4-0.8-2.4v-4.2h1.1V83c0,1.6,0.7,2.4,2.1,2.4c0.7,0,1.2-0.2,1.6-0.6
			c0.4-0.4,0.5-1,0.5-1.8v-4.2h1v4.2c0,1.1-0.3,1.9-0.8,2.4s-1.3,0.8-2.3,0.8C219.4,86.3,218.6,86,218.1,85.5z"/>
		<path class="st0" d="M230.8,79.5c0.5,0.5,0.8,1.1,0.8,1.9s-0.3,1.4-0.8,1.9c-0.5,0.5-1.3,0.7-2.3,0.7h-1.8v2.2h-1.1v-7.4h2.9
			C229.5,78.9,230.3,79.1,230.8,79.5z M230.1,82.7c0.4-0.3,0.5-0.7,0.5-1.2c0-0.5-0.2-0.9-0.5-1.2c-0.4-0.3-0.9-0.4-1.5-0.4h-1.8
			v3.3h1.8C229.2,83.1,229.7,82.9,230.1,82.7z"/>
		<path class="st0" d="M238.6,85.3v0.9h-5.4v-7.4h5.2v0.9h-4.2V82h3.7v0.9h-3.7v2.4H238.6z"/>
		<path class="st0" d="M245.2,86.2l-1.6-2.3c-0.2,0-0.4,0-0.5,0h-1.8v2.2h-1.1v-7.4h2.9c1,0,1.7,0.2,2.3,0.7
			c0.5,0.5,0.8,1.1,0.8,1.9c0,0.6-0.1,1.1-0.4,1.5s-0.7,0.7-1.2,0.9l1.8,2.5H245.2z M244.6,82.7c0.4-0.3,0.5-0.7,0.5-1.2
			c0-0.5-0.2-0.9-0.5-1.2s-0.9-0.4-1.5-0.4h-1.8v3.3h1.8C243.8,83.1,244.3,82.9,244.6,82.7z"/>
		<path class="st0" d="M247.9,78.9h1.1v7.4h-1.1V78.9z"/>
		<path class="st0" d="M252.5,85.8c-0.6-0.3-1.1-0.8-1.4-1.4c-0.3-0.6-0.5-1.2-0.5-1.9s0.2-1.4,0.5-1.9c0.3-0.6,0.8-1,1.4-1.4
			s1.3-0.5,2-0.5c0.7,0,1.4,0.2,2,0.5c0.6,0.3,1.1,0.8,1.4,1.4c0.3,0.6,0.5,1.2,0.5,1.9s-0.2,1.4-0.5,1.9c-0.3,0.6-0.8,1-1.4,1.4
			c-0.6,0.3-1.3,0.5-2,0.5C253.8,86.3,253.1,86.2,252.5,85.8z M256,85c0.4-0.2,0.8-0.6,1-1s0.4-0.9,0.4-1.5c0-0.5-0.1-1-0.4-1.5
			c-0.2-0.4-0.6-0.8-1-1c-0.4-0.2-0.9-0.4-1.5-0.4c-0.5,0-1,0.1-1.5,0.4c-0.4,0.2-0.8,0.6-1,1c-0.2,0.4-0.4,0.9-0.4,1.5
			c0,0.5,0.1,1,0.4,1.5c0.2,0.4,0.6,0.8,1,1s0.9,0.4,1.5,0.4C255.1,85.4,255.6,85.3,256,85z"/>
		<path class="st0" d="M265,86.2l-1.6-2.3c-0.2,0-0.4,0-0.5,0h-1.8v2.2h-1.1v-7.4h2.9c1,0,1.7,0.2,2.3,0.7c0.5,0.5,0.8,1.1,0.8,1.9
			c0,0.6-0.1,1.1-0.4,1.5s-0.7,0.7-1.2,0.9l1.8,2.5H265z M264.4,82.7c0.4-0.3,0.5-0.7,0.5-1.2c0-0.5-0.2-0.9-0.5-1.2
			s-0.9-0.4-1.5-0.4h-1.8v3.3h1.8C263.6,83.1,264.1,82.9,264.4,82.7z"/>
		<path class="st0" d="M273.1,85.3v0.9h-5.4v-7.4h5.2v0.9h-4.2V82h3.7v0.9h-3.7v2.4H273.1z"/>
	</g>
	<g>
		<path class="st0" d="M89.4,90.2l-5.9,13.6h-3.1l-5.8-13.6h3.4l4.1,9.7l4.2-9.7H89.4z"/>
		<path class="st0" d="M90.5,90.2h3.1v13.6h-3.1V90.2z"/>
		<path class="st0" d="M99.6,103.1c-1.1-0.6-2-1.4-2.7-2.5c-0.6-1.1-1-2.3-1-3.6c0-1.3,0.3-2.5,1-3.6s1.5-1.9,2.7-2.5
			c1.1-0.6,2.4-0.9,3.8-0.9s2.7,0.3,3.8,0.9c1.1,0.6,2,1.4,2.7,2.5c0.6,1.1,1,2.3,1,3.6c0,1.3-0.3,2.5-1,3.6
			c-0.6,1.1-1.5,1.9-2.7,2.5c-1.1,0.6-2.4,0.9-3.8,0.9S100.7,103.7,99.6,103.1z M105.6,100.8c0.6-0.4,1.2-0.9,1.5-1.5
			c0.4-0.7,0.6-1.4,0.6-2.2c0-0.8-0.2-1.6-0.6-2.2c-0.4-0.7-0.9-1.2-1.5-1.5c-0.6-0.4-1.4-0.6-2.2-0.6c-0.8,0-1.5,0.2-2.2,0.6
			c-0.6,0.4-1.2,0.9-1.5,1.5c-0.4,0.7-0.6,1.4-0.6,2.2c0,0.8,0.2,1.6,0.6,2.2c0.4,0.7,0.9,1.2,1.5,1.5c0.6,0.4,1.4,0.6,2.2,0.6
			C104.2,101.3,104.9,101.2,105.6,100.8z"/>
		<path class="st0" d="M113.2,90.2h3.1v11h6.8v2.6h-9.9V90.2z"/>
		<path class="st0" d="M133.9,100.9h-6.3l-1.2,2.9h-3.2l6-13.6h3.1l6.1,13.6h-3.3L133.9,100.9z M132.9,98.5l-2.1-5.2l-2.1,5.2H132.9
			z"/>
		<path class="st0" d="M157.7,103.8l0-8.1l-4,6.7h-1.4l-4-6.5v8h-2.9V90.2h2.6l5.1,8.4l5-8.4h2.6l0,13.6H157.7z"/>
		<path class="st0" d="M172.7,100.9h-6.3l-1.2,2.9H162l6-13.6h3.1l6.1,13.6h-3.3L172.7,100.9z M171.8,98.5l-2.1-5.2l-2.1,5.2H171.8z
			"/>
		<path class="st0" d="M187.3,103.8l-2.6-3.8h-0.2h-2.7v3.8h-3.1V90.2h5.9c1.2,0,2.2,0.2,3.1,0.6c0.9,0.4,1.6,1,2,1.7
			c0.5,0.7,0.7,1.6,0.7,2.6c0,1-0.2,1.9-0.7,2.6c-0.5,0.7-1.2,1.3-2.1,1.7l3,4.4H187.3z M186.5,93.4c-0.5-0.4-1.2-0.6-2.1-0.6h-2.6
			v4.7h2.6c0.9,0,1.7-0.2,2.1-0.6c0.5-0.4,0.7-1,0.7-1.7C187.2,94.4,187,93.8,186.5,93.4z"/>
		<path class="st0" d="M195.6,103.1c-1.1-0.6-2-1.4-2.6-2.5c-0.6-1.1-1-2.3-1-3.6c0-1.3,0.3-2.5,1-3.6c0.6-1.1,1.5-1.9,2.6-2.5
			c1.1-0.6,2.4-0.9,3.8-0.9c1.2,0,2.2,0.2,3.2,0.6s1.7,1,2.4,1.8l-2,1.9c-0.9-1.1-2.1-1.6-3.4-1.6c-0.8,0-1.6,0.2-2.2,0.6
			c-0.7,0.4-1.2,0.9-1.5,1.5c-0.4,0.7-0.6,1.4-0.6,2.2c0,0.8,0.2,1.6,0.6,2.2c0.4,0.7,0.9,1.2,1.5,1.5c0.7,0.4,1.4,0.6,2.2,0.6
			c1.4,0,2.5-0.5,3.4-1.6l2,1.9c-0.6,0.8-1.4,1.4-2.4,1.8s-2,0.6-3.2,0.6C198,104,196.7,103.7,195.6,103.1z"/>
		<path class="st0" d="M219.5,90.2v13.6h-3.1v-5.6h-6.2v5.6h-3.1V90.2h3.1v5.3h6.2v-5.3H219.5z"/>
		<path class="st0" d="M233.2,101.3v2.5h-10.5V90.2H233v2.5h-7.1v2.9h6.3v2.4h-6.3v3.1H233.2z"/>
		<path class="st0" d="M237.1,103.6c-1-0.3-1.8-0.7-2.4-1.1l1.1-2.4c0.6,0.4,1.3,0.8,2.1,1c0.8,0.3,1.6,0.4,2.4,0.4
			c0.9,0,1.5-0.1,2-0.4c0.4-0.3,0.6-0.6,0.6-1.1c0-0.3-0.1-0.6-0.4-0.8c-0.3-0.2-0.6-0.4-1-0.5c-0.4-0.1-0.9-0.3-1.6-0.4
			c-1-0.2-1.9-0.5-2.5-0.7c-0.7-0.2-1.2-0.6-1.7-1.2c-0.5-0.5-0.7-1.3-0.7-2.2c0-0.8,0.2-1.5,0.6-2.1s1.1-1.1,1.9-1.5
			s1.9-0.6,3.1-0.6c0.9,0,1.7,0.1,2.5,0.3c0.8,0.2,1.5,0.5,2.2,0.9l-1,2.4c-1.3-0.7-2.5-1.1-3.8-1.1c-0.9,0-1.5,0.1-1.9,0.4
			c-0.4,0.3-0.6,0.7-0.6,1.1s0.2,0.8,0.7,1s1.2,0.4,2.2,0.7c1,0.2,1.9,0.5,2.5,0.7c0.7,0.2,1.2,0.6,1.7,1.2c0.5,0.5,0.7,1.2,0.7,2.1
			c0,0.8-0.2,1.5-0.6,2.1s-1.1,1.1-1.9,1.5c-0.9,0.4-1.9,0.6-3.2,0.6C239.1,104,238.1,103.9,237.1,103.6z"/>
		<path class="st0" d="M248.1,90.2h3.1v13.6h-3.1V90.2z"/>
		<path class="st0" d="M266.9,90.2v13.6h-2.6l-6.8-8.2v8.2h-3.1V90.2h2.6l6.7,8.2v-8.2H266.9z"/>
		<path class="st0" d="M270.1,90.2h3.1v13.6h-3.1V90.2z"/>
	</g>
	<g>
		<path class="st0" d="M234.7,115.1l-1.4-2.1h-0.1h-1.5v2.1h-1.7v-7.5h3.2c0.7,0,1.2,0.1,1.7,0.3s0.9,0.5,1.1,0.9
			c0.3,0.4,0.4,0.9,0.4,1.4s-0.1,1-0.4,1.4c-0.3,0.4-0.6,0.7-1.1,0.9l1.7,2.4H234.7z M234.2,109.4c-0.3-0.2-0.7-0.3-1.2-0.3h-1.4
			v2.6h1.4c0.5,0,0.9-0.1,1.2-0.3c0.3-0.2,0.4-0.6,0.4-1C234.6,109.9,234.5,109.6,234.2,109.4z"/>
		<path class="st0" d="M239.3,114.8c-0.6-0.3-1.1-0.8-1.5-1.4c-0.4-0.6-0.5-1.3-0.5-2c0-0.7,0.2-1.4,0.5-2s0.8-1.1,1.5-1.4
			c0.6-0.3,1.3-0.5,2.1-0.5s1.5,0.2,2.1,0.5c0.6,0.3,1.1,0.8,1.5,1.4c0.4,0.6,0.5,1.3,0.5,2c0,0.7-0.2,1.4-0.5,2
			c-0.4,0.6-0.8,1.1-1.5,1.4c-0.6,0.3-1.3,0.5-2.1,0.5S239.9,115.1,239.3,114.8z M242.6,113.5c0.4-0.2,0.6-0.5,0.8-0.9
			s0.3-0.8,0.3-1.2c0-0.5-0.1-0.9-0.3-1.2s-0.5-0.6-0.8-0.9c-0.4-0.2-0.8-0.3-1.2-0.3c-0.4,0-0.8,0.1-1.2,0.3s-0.6,0.5-0.8,0.9
			s-0.3,0.8-0.3,1.2c0,0.5,0.1,0.9,0.3,1.2s0.5,0.6,0.8,0.9s0.8,0.3,1.2,0.3C241.8,113.8,242.2,113.7,242.6,113.5z"/>
		<path class="st0" d="M253.8,107.6l-3.2,7.5h-1.7l-3.2-7.5h1.9l2.3,5.4l2.3-5.4H253.8z"/>
		<path class="st0" d="M254.4,107.6h1.7v7.5h-1.7V107.6z"/>
		<path class="st0" d="M263,111.3h1.6v3c-0.4,0.3-0.9,0.5-1.4,0.7s-1.1,0.2-1.6,0.2c-0.8,0-1.5-0.2-2.1-0.5s-1.1-0.8-1.5-1.4
			c-0.4-0.6-0.5-1.3-0.5-2c0-0.7,0.2-1.4,0.5-2s0.8-1,1.5-1.4c0.6-0.3,1.3-0.5,2.1-0.5c0.7,0,1.3,0.1,1.8,0.3c0.5,0.2,1,0.5,1.3,1
			l-1.1,1c-0.5-0.6-1.2-0.8-1.9-0.8c-0.5,0-0.9,0.1-1.3,0.3c-0.4,0.2-0.7,0.5-0.9,0.8c-0.2,0.4-0.3,0.8-0.3,1.3
			c0,0.5,0.1,0.9,0.3,1.2c0.2,0.4,0.5,0.6,0.9,0.9c0.4,0.2,0.8,0.3,1.3,0.3c0.5,0,0.9-0.1,1.3-0.3V111.3z"/>
		<path class="st0" d="M267.7,114.8c-0.6-0.3-1.1-0.8-1.5-1.4c-0.4-0.6-0.5-1.3-0.5-2c0-0.7,0.2-1.4,0.5-2s0.8-1.1,1.5-1.4
			c0.6-0.3,1.3-0.5,2.1-0.5c0.8,0,1.5,0.2,2.1,0.5c0.6,0.3,1.1,0.8,1.5,1.4s0.5,1.3,0.5,2c0,0.7-0.2,1.4-0.5,2
			c-0.4,0.6-0.8,1.1-1.5,1.4s-1.3,0.5-2.1,0.5C269,115.3,268.3,115.1,267.7,114.8z M271,113.5c0.4-0.2,0.6-0.5,0.8-0.9
			c0.2-0.4,0.3-0.8,0.3-1.2c0-0.5-0.1-0.9-0.3-1.2c-0.2-0.4-0.5-0.6-0.8-0.9c-0.4-0.2-0.8-0.3-1.2-0.3c-0.4,0-0.8,0.1-1.2,0.3
			s-0.6,0.5-0.8,0.9c-0.2,0.4-0.3,0.8-0.3,1.2c0,0.5,0.1,0.9,0.3,1.2c0.2,0.4,0.5,0.6,0.8,0.9s0.8,0.3,1.2,0.3
			C270.2,113.8,270.6,113.7,271,113.5z"/>
	</g>
	<path class="st1" d="M222.5,111.2h-145c-0.4-1.2-1.5-2-2.7-2c-1.6,0-2.9,1.3-2.9,2.9c0,1.6,1.3,2.9,2.9,2.9c1.3,0,2.4-0.8,2.7-2
		h145V111.2z"/>
	<polygon class="st1" points="65.2,150.4 8.6,117.7 8.6,52.4 65.2,19.7 121.8,52.4 121.8,69 115.2,69 115.2,56.2 65.2,27.3 
		15.2,56.2 15.2,113.9 65.2,142.8 109.8,117 113.1,122.7 	"/>
	<polygon class="st2" points="31.4,69.2 31.4,104.6 65.2,124.1 65.2,131.9 24.6,108.5 24.6,65.3 	"/>
	<polygon class="st3" points="99,65.5 65.2,46 35.6,63.1 28.8,59.2 65.2,38.2 105.8,61.6 	"/>
	<g>
		<polygon class="st4" points="41.6,73.3 41.6,98.7 65.2,112.3 65.2,117.8 36.9,101.4 36.9,70.6 		"/>
		<path class="st4" d="M65.7,118.6l-29.3-16.9V69.8l5.7,3.3v25.4L65.7,112V118.6z M37.3,101.1L64.8,117v-4.4L41.1,98.9V73.6
			l-3.8-2.2V101.1z"/>
	</g>
	<g>
		<polygon class="st5" points="88.8,71.4 65.2,57.8 44.5,69.7 39.8,67 65.2,52.3 93.6,68.7 		"/>
		<path class="st5" d="M88.8,71.9L65.2,58.3L44.5,70.2L38.8,67l26.4-15.2l29.3,16.9L88.8,71.9z M65.2,57.2l23.6,13.6l3.8-2.2
			L65.2,52.8L40.7,67l3.8,2.2L65.2,57.2z"/>
	</g>
</g>
</svg>
