<svg version="1.2" xmlns="http://www.w3.org/2000/svg" viewBox="0 0 1257 618" width="1257" height="618"><style>.a{fill:#602483}.b{fill:#ffdf34}.c{fill:#e51435}.d{fill:#2ca43d}.e{fill:#0078b7}</style><path  d="m334 285.4h4.7v32.9h-4.7z"/><path  d="m351 317.5q-3.5-1.2-5.4-3l1.7-3.7q2 1.7 4.8 2.7c2 0.7 4 1.1 6 1.1 2.7 0 4.8-0.5 6.1-1.4 1.3-0.9 2-2.2 2-3.7 0-1.1-0.4-2-1.1-2.7-0.7-0.7-1.6-1.2-2.7-1.6-1.1-0.4-2.6-0.8-4.6-1.3q-3.8-0.9-6-1.8-2.3-0.9-3.9-2.7c-1.1-1.2-1.6-2.9-1.6-5 0-1.8 0.5-3.3 1.4-4.7 0.9-1.4 2.3-2.5 4.2-3.4 1.9-0.9 4.2-1.3 7-1.3 1.9 0 3.9 0.3 5.7 0.8 1.9 0.5 3.5 1.2 4.8 2.2l-1.6 3.8c-1.4-0.9-2.9-1.5-4.4-2-1.6-0.5-3.1-0.7-4.6-0.7q-4.1 0-6 1.5c-1.3 1-2 2.2-2 3.8 0 1.1 0.4 2 1.1 2.7 0.8 0.7 1.7 1.3 2.8 1.6q1.6 0.6 4.5 1.2 3.7 0.9 6 1.8 2.2 0.9 3.9 2.7c1.1 1.2 1.6 2.9 1.6 4.9 0 1.7-0.5 3.3-1.4 4.7-0.9 1.4-2.4 2.6-4.3 3.4-1.9 0.8-4.3 1.2-7.1 1.2-2.2 0-4.6-0.3-6.9-1.1z"/><path  d="m383.8 289.5h-11.3v-4.1h27.2v4.1h-11.3v28.8h-4.7v-28.8z"/><path  d="m404.9 285.4h4.7v32.9h-4.7z"/><path  d="m426 289.5h-11.3v-4.1h27.2v4.1h-11.3v28.8h-4.6z"/><path  d="m449.8 314.9c-2.4-2.5-3.7-6.1-3.7-10.8v-18.7h4.7v18.5c0 7.1 3.1 10.6 9.3 10.6 3 0 5.3-0.9 6.9-2.6 1.6-1.7 2.4-4.4 2.4-8v-18.5h4.6v18.7c0 4.7-1.2 8.3-3.7 10.8-2.4 2.5-5.9 3.7-10.2 3.7-4.3 0-7.8-1.2-10.3-3.7z"/><path  d="m489.5 289.5h-11.3v-4.1h27.2v4.1h-11.3v28.8h-4.7v-28.8z"/><path fill-rule="evenodd" d="m516 316.5q-4.1-2.3-6.3-6c-1.5-2.6-2.3-5.4-2.3-8.6 0-3.2 0.8-6 2.3-8.6q2.3-3.9 6.3-6c2.7-1.5 5.7-2.2 9-2.2 3.3 0 6.3 0.7 8.9 2.2 2.7 1.5 4.7 3.5 6.3 6 1.5 2.6 2.3 5.4 2.3 8.6 0 3.2-0.8 6.1-2.3 8.6q-2.3 3.9-6.3 6c-2.7 1.5-5.6 2.2-8.9 2.2-3.3-0.1-6.3-0.8-9-2.2zm15.5-3.7c1.9-1.1 3.4-2.6 4.6-4.5 1.1-1.9 1.7-4.1 1.7-6.5 0-2.4-0.6-4.5-1.7-6.5-1.1-1.9-2.6-3.4-4.6-4.5-1.9-1.1-4.1-1.6-6.5-1.6-2.4 0-4.6 0.5-6.6 1.6-2 1.1-3.5 2.6-4.6 4.5-1.1 1.9-1.7 4.1-1.7 6.5 0 2.4 0.6 4.5 1.7 6.5 1.1 1.9 2.6 3.4 4.6 4.5 2 1.1 4.1 1.6 6.6 1.6 2.5 0 4.6-0.5 6.5-1.6z"/><path fill-rule="evenodd" d="m562.2 285.4h13.9q5.3 0 9.3 2.1c2.7 1.4 4.8 3.3 6.3 5.8 1.5 2.5 2.2 5.4 2.2 8.6 0 3.2-0.7 6.1-2.2 8.6-1.5 2.5-3.6 4.4-6.3 5.8q-4.1 2.1-9.3 2.1h-13.9zm13.6 28.8c2.7 0 5-0.5 7-1.6 2-1 3.6-2.5 4.7-4.3 1.1-1.9 1.6-4 1.6-6.5 0-2.4-0.5-4.6-1.6-6.5-1.1-1.9-2.7-3.3-4.7-4.3-2-1-4.4-1.6-7-1.6h-8.9v24.7h8.9z"/><path  d="m601.1 285.4h4.7v32.9h-4.7z"/><path  d="m628.3 285.4h4.7v32.9h-4.7z"/><path  d="m645.3 317.5q-3.5-1.2-5.4-3l1.7-3.7q2 1.7 4.8 2.7c2 0.7 4 1.1 6 1.1 2.7 0 4.8-0.5 6.1-1.4 1.3-0.9 2-2.2 2-3.7 0-1.1-0.4-2-1.1-2.7-0.7-0.7-1.6-1.2-2.7-1.6-1.1-0.4-2.6-0.8-4.6-1.3q-3.7-0.9-6-1.8-2.2-0.9-3.9-2.7c-1.1-1.2-1.6-2.9-1.6-5 0-1.8 0.5-3.3 1.4-4.7 0.9-1.4 2.3-2.5 4.2-3.4 1.9-0.9 4.2-1.3 7-1.3 1.9 0 3.9 0.3 5.7 0.8 1.9 0.5 3.5 1.2 4.8 2.2l-1.6 3.8c-1.4-0.9-2.8-1.5-4.4-2-1.6-0.5-3.1-0.7-4.6-0.7q-4 0-6 1.5c-1.3 1-2 2.2-2 3.8 0 1.1 0.4 2 1.1 2.7 0.8 0.7 1.7 1.3 2.8 1.6q1.7 0.6 4.5 1.2 3.8 0.9 6 1.8 2.3 0.9 3.9 2.7c1.1 1.2 1.6 2.9 1.6 4.9 0 1.7-0.5 3.3-1.4 4.7-0.9 1.4-2.4 2.6-4.3 3.4-1.9 0.8-4.3 1.2-7.1 1.2-2.2 0-4.6-0.3-6.9-1.1z"/><path  d="m678.1 289.5h-11.3v-4.1h27.2v4.1h-11.3v28.8h-4.7v-28.8z"/><path fill-rule="evenodd" d="m721.2 318.3l-7.1-10.1c-0.9 0.1-1.6 0.1-2.1 0.1h-8.1v10h-4.7v-32.9h12.8c4.3 0 7.6 1 10.1 3.1 2.4 2 3.7 4.8 3.7 8.4 0 2.5-0.6 4.7-1.9 6.5-1.3 1.8-3 3.1-5.4 3.9l7.8 11zm-2.5-16c1.6-1.3 2.3-3.1 2.3-5.5 0-2.4-0.8-4.2-2.3-5.5-1.6-1.3-3.8-1.9-6.8-1.9h-8v14.8h8c2.9 0.1 5.2-0.6 6.8-1.9z"/><path  d="m736.7 314.9c-2.4-2.5-3.7-6.1-3.7-10.8v-18.7h4.7v18.5c0 7.1 3.1 10.6 9.3 10.6 3 0 5.3-0.9 6.9-2.6 1.6-1.7 2.4-4.4 2.4-8v-18.5h4.6v18.7c0 4.7-1.2 8.3-3.7 10.8-2.4 2.5-5.9 3.7-10.2 3.7-4.4 0-7.8-1.2-10.3-3.7z"/><path  d="m795.1 314.2v4.1h-27.5v-3.2l20.7-25.6h-20.4v-4.1h26.6v3.2l-20.6 25.6z"/><path  d="m801.4 285.4h4.7v32.9h-4.7z"/><path fill-rule="evenodd" d="m821.8 316.5q-4-2.3-6.3-6c-1.5-2.6-2.3-5.4-2.3-8.6 0-3.2 0.8-6 2.3-8.6q2.3-3.9 6.3-6c2.7-1.5 5.7-2.2 9-2.2 3.3 0 6.3 0.7 8.9 2.2 2.7 1.5 4.7 3.5 6.3 6 1.5 2.6 2.3 5.4 2.3 8.6 0 3.2-0.7 6.1-2.3 8.6q-2.2 3.9-6.3 6c-2.7 1.5-5.6 2.2-8.9 2.2-3.3-0.1-6.3-0.8-9-2.2zm15.5-3.7c1.9-1.1 3.4-2.6 4.6-4.5 1.1-1.9 1.7-4.1 1.7-6.5 0-2.4-0.6-4.5-1.7-6.5-1.1-1.9-2.6-3.4-4.6-4.5-1.9-1.1-4.1-1.6-6.5-1.6-2.4 0-4.6 0.5-6.6 1.6-2 1.1-3.5 2.6-4.6 4.5-1.1 1.9-1.7 4.1-1.7 6.5 0 2.4 0.6 4.5 1.7 6.5 1.1 1.9 2.6 3.4 4.6 4.5 2 1.1 4.1 1.6 6.6 1.6 2.4 0.1 4.6-0.5 6.5-1.6z"/><path  d="m883.7 285.4v32.9h-3.9l-19.7-24.5v24.5h-4.7v-32.9h3.9l19.7 24.5v-24.5z"/><path  d="m917.5 314.2v4.1h-23.9v-32.9h23.2v4.1h-18.5v10.1h16.5v4h-16.5v10.6z"/><path  d="m940.2 317.5q-3.4-1.2-5.4-3l1.7-3.7q2 1.7 4.8 2.7c2 0.7 4 1.1 6 1.1 2.7 0 4.8-0.5 6.1-1.4 1.3-0.9 2-2.2 2-3.7 0-1.1-0.4-2-1.1-2.7-0.7-0.7-1.6-1.2-2.7-1.6-1.1-0.4-2.6-0.8-4.6-1.3q-3.8-0.9-6-1.8-2.2-0.9-3.9-2.7c-1.1-1.2-1.6-2.9-1.6-5 0-1.8 0.5-3.3 1.4-4.7 0.9-1.4 2.3-2.5 4.2-3.4 1.9-0.8 4.2-1.3 7-1.3 1.9 0 3.9 0.3 5.7 0.8 1.9 0.5 3.5 1.2 4.8 2.2l-1.6 3.8c-1.4-0.9-2.8-1.5-4.4-2-1.6-0.5-3.1-0.7-4.6-0.7q-4 0-6 1.5c-1.3 1-2 2.2-2 3.8 0 1.1 0.4 2 1.1 2.7 0.8 0.7 1.7 1.3 2.8 1.6q1.6 0.6 4.5 1.2 3.8 0.9 6 1.8 2.3 0.9 3.9 2.7c1.1 1.2 1.6 2.9 1.6 4.9 0 1.7-0.5 3.3-1.4 4.7-0.9 1.4-2.4 2.6-4.3 3.4-1.9 0.8-4.3 1.2-7.1 1.2-2.2 0-4.6-0.3-6.9-1.1z"/><path  d="m970.3 314.9c-2.4-2.5-3.7-6.1-3.7-10.8v-18.7h4.7v18.5c0 7.1 3.1 10.6 9.3 10.6 3 0 5.3-0.9 6.9-2.6 1.6-1.7 2.4-4.4 2.4-8v-18.5h4.6v18.7c0 4.7-1.2 8.3-3.7 10.8-2.4 2.5-5.9 3.7-10.2 3.7-4.4 0-7.8-1.2-10.3-3.7z"/><path fill-rule="evenodd" d="m1027 288.4c2.4 2 3.7 4.8 3.7 8.4 0 3.6-1.2 6.4-3.7 8.4-2.4 2-5.8 3.1-10.1 3.1h-8.1v10h-4.7v-32.9h12.8c4.3 0 7.7 1 10.1 3zm-3.4 13.9c1.6-1.3 2.3-3.1 2.3-5.5 0-2.4-0.8-4.2-2.3-5.5-1.6-1.3-3.8-1.9-6.8-1.9h-8v14.8h8c3 0 5.2-0.6 6.8-1.9z"/><path  d="m1061.4 314.2v4.1h-23.9v-32.9h23.2v4.1h-18.5v10.1h16.5v4h-16.5v10.6z"/><path fill-rule="evenodd" d="m1091.1 318.3l-7.1-10.1c-0.9 0.1-1.6 0.1-2.1 0.1h-8.1v10h-4.7v-32.9h12.8c4.3 0 7.6 1 10.1 3.1 2.4 2 3.7 4.8 3.7 8.4 0 2.5-0.6 4.7-1.9 6.5-1.3 1.8-3 3.1-5.4 3.9l7.8 11zm-2.5-16c1.6-1.3 2.3-3.1 2.3-5.5 0-2.4-0.8-4.2-2.3-5.5-1.6-1.3-3.8-1.9-6.8-1.9h-8v14.8h8c2.9 0.1 5.2-0.6 6.8-1.9z"/><path  d="m1103.2 285.4h4.7v32.9h-4.7z"/><path fill-rule="evenodd" d="m1123.7 316.5q-4-2.3-6.3-6c-1.5-2.6-2.3-5.4-2.3-8.6 0-3.2 0.8-6 2.3-8.6q2.3-3.9 6.3-6c2.7-1.4 5.7-2.2 9-2.2 3.3 0 6.3 0.7 8.9 2.2 2.7 1.5 4.7 3.5 6.2 6 1.5 2.6 2.3 5.4 2.3 8.6 0 3.2-0.8 6.1-2.3 8.6-1.5 2.6-3.6 4.6-6.2 6-2.7 1.5-5.6 2.2-8.9 2.2-3.4-0.1-6.4-0.8-9-2.2zm15.5-3.7c1.9-1.1 3.4-2.6 4.6-4.5 1.1-1.9 1.7-4.1 1.7-6.5 0-2.4-0.6-4.5-1.7-6.5-1.1-1.9-2.6-3.4-4.6-4.5-1.9-1.1-4.1-1.6-6.5-1.6-2.4 0-4.6 0.5-6.6 1.6-2 1.1-3.5 2.6-4.6 4.5-1.1 1.9-1.7 4.1-1.7 6.5 0 2.4 0.6 4.5 1.7 6.5 1.1 1.9 2.6 3.4 4.6 4.5 2 1.1 4.1 1.6 6.6 1.6 2.4 0.1 4.5-0.5 6.5-1.6z"/><path fill-rule="evenodd" d="m1179.3 318.3l-7.1-10.1c-0.9 0.1-1.6 0.1-2.1 0.1h-8.1v10h-4.7v-32.9h12.8c4.3 0 7.6 1 10.1 3.1 2.4 2 3.7 4.8 3.7 8.4 0 2.5-0.6 4.7-1.9 6.5-1.3 1.8-3 3.1-5.4 3.9l7.8 11zm-2.5-16c1.6-1.3 2.4-3.1 2.4-5.5 0-2.4-0.8-4.2-2.4-5.5-1.6-1.3-3.8-1.9-6.8-1.9h-8v14.8h8c2.9 0.1 5.2-0.6 6.8-1.9z"/><path  d="m1215.3 314.2v4.1h-23.9v-32.9h23.2v4.1h-18.5v10.1h16.5v4h-16.5v10.6z"/><path  d="m396.8 336l-26.1 60.4h-13.8l-26.1-60.4h15.1l18.4 43.1 18.6-43.1z"/><path  d="m401.8 336h14v60.4h-14z"/><path fill-rule="evenodd" d="m442.4 393.4c-5-2.7-9-6.4-11.8-11.2-2.8-4.7-4.3-10.1-4.3-16 0-5.9 1.4-11.3 4.3-16 2.8-4.7 6.8-8.5 11.8-11.2 5-2.7 10.7-4.1 17-4.1 6.3 0 11.9 1.4 16.9 4.1 5 2.7 8.9 6.4 11.8 11.2 2.9 4.7 4.3 10.1 4.3 16 0 5.9-1.4 11.3-4.3 16-2.9 4.7-6.8 8.5-11.8 11.2-5 2.7-10.6 4.1-16.9 4.1-6.3 0-12-1.4-17-4.1zm26.6-10.3c2.9-1.6 5.1-3.9 6.8-6.9 1.6-2.9 2.5-6.3 2.5-10 0-3.7-0.8-7.1-2.5-10-1.6-2.9-3.9-5.2-6.8-6.9-2.9-1.6-6.1-2.5-9.7-2.5-3.6 0-6.8 0.8-9.7 2.5-2.9 1.6-5.1 3.9-6.8 6.9-1.6 2.9-2.5 6.3-2.5 10 0 3.7 0.8 7.1 2.5 10 1.6 2.9 3.9 5.2 6.8 6.9 2.9 1.6 6.1 2.5 9.7 2.5 3.6 0 6.8-0.9 9.7-2.5z"/><path  d="m502.9 336h14v49h30.3v11.4h-44.3z"/><path fill-rule="evenodd" d="m595.3 383.5h-28l-5.3 12.9h-14.3l26.9-60.4h13.8l27 60.4h-14.7zm-4.4-10.6l-9.6-23.1-9.6 23.1z"/><path  d="m701 396.4l-0.1-36.2-17.8 29.9h-6.3l-17.7-29.1v35.5h-13.1v-60.5h11.6l22.6 37.5 22.3-37.5h11.5l0.2 60.4z"/><path fill-rule="evenodd" d="m768.2 383.5h-28l-5.4 12.9h-14.3l26.9-60.4h13.8l27 60.4h-14.7zm-4.4-10.6l-9.6-23.1-9.6 23.1z"/><path fill-rule="evenodd" d="m833 396.4l-11.6-16.8h-12.9v16.8h-14v-60.4h26.1c5.4 0 10 0.9 13.9 2.7 3.9 1.8 7 4.3 9.1 7.6 2.1 3.3 3.2 7.2 3.2 11.6 0 4.5-1.1 8.4-3.2 11.6-2.2 3.3-5.2 5.7-9.2 7.5l13.5 19.4zm-3.5-46.3q-3.3-2.7-9.6-2.7h-11.4v21.1h11.4c4.2 0 7.4-0.9 9.6-2.8q3.3-2.7 3.3-7.8 0-4.9-3.3-7.8z"/><path  d="m870.2 393.5q-7.5-4-11.7-11.1c-2.8-4.7-4.3-10.1-4.3-16.1 0-6 1.4-11.3 4.3-16.1 2.8-4.7 6.8-8.5 11.7-11.1 5-2.7 10.6-4 16.8-4 5.2 0 10 0.9 14.2 2.8 4.2 1.8 7.8 4.5 10.7 7.9l-9 8.3c-4.1-4.7-9.1-7.1-15.2-7.1-3.7 0-7.1 0.8-10 2.5q-4.4 2.4-6.9 6.9c-1.6 2.9-2.5 6.3-2.5 10 0 3.7 0.8 7.1 2.5 10q2.4 4.3 6.9 6.9c2.9 1.6 6.3 2.5 10 2.5 6 0 11.1-2.4 15.2-7.2l9 8.3c-2.9 3.5-6.4 6.2-10.7 8-4.3 1.8-9 2.8-14.2 2.8q-9.5-0.3-16.8-4.2z"/><path  d="m976.6 336v60.4h-14v-24.8h-27.4v24.8h-14v-60.4h14v23.8h27.4v-23.8z"/><path  d="m1037.7 385.2v11.2h-46.8v-60.4h45.6v11.2h-31.8v13.1h28v10.9h-28v14z"/><path  d="m1054.8 395.5c-4.5-1.3-8-3-10.7-5l4.7-10.5c2.6 1.9 5.7 3.4 9.2 4.6 3.6 1.2 7.1 1.7 10.7 1.7 4 0 6.9-0.6 8.8-1.8 1.9-1.2 2.8-2.7 2.8-4.7 0-1.4-0.6-2.6-1.7-3.6-1.1-0.9-2.6-1.7-4.3-2.3-1.8-0.6-4.1-1.2-7.1-1.9-4.6-1.1-8.4-2.2-11.3-3.3-2.9-1.1-5.5-2.8-7.6-5.3-2.1-2.4-3.1-5.6-3.1-9.7 0-3.5 0.9-6.7 2.8-9.5 1.9-2.8 4.8-5.1 8.6-6.8 3.8-1.7 8.5-2.5 14-2.5 3.9 0 7.6 0.5 11.3 1.4 3.7 0.9 6.9 2.2 9.7 4l-4.3 10.6c-5.6-3.2-11.2-4.7-16.7-4.7-3.9 0-6.8 0.6-8.7 1.9-1.9 1.3-2.8 2.9-2.8 5 0 2.1 1.1 3.6 3.2 4.6 2.1 1 5.5 2 9.9 3 4.6 1.1 8.4 2.2 11.3 3.3 2.9 1.1 5.4 2.8 7.5 5.2 2.1 2.4 3.2 5.6 3.2 9.6 0 3.5-1 6.6-2.9 9.4-1.9 2.8-4.8 5.1-8.7 6.8-3.9 1.7-8.5 2.5-14.1 2.5-4.6 0-9.2-0.7-13.7-2z"/><path  d="m1103.9 336h14v60.4h-14z"/><path  d="m1187.6 336v60.4h-11.5l-30.1-36.7v36.7h-13.8v-60.4h11.6l30 36.7v-36.7z"/><path  d="m1201.9 336h14v60.4h-14z"/><path fill-rule="evenodd" d="m1044.1 447l-6.4-9.3h-7.1v9.3h-7.7v-33.4h14.5c3 0 5.5 0.5 7.7 1.5 2.2 1 3.9 2.4 5 4.2 1.2 1.8 1.8 4 1.8 6.4 0 2.5-0.6 4.6-1.8 6.4-1.2 1.8-2.9 3.2-5.1 4.1l7.5 10.7h-8.4zm-2-25.6c-1.2-1-3-1.5-5.3-1.5h-6.3v11.6h6.3c2.3 0 4.1-0.5 5.3-1.5 1.2-1 1.8-2.5 1.8-4.3 0-1.8-0.6-3.3-1.8-4.3z"/><path fill-rule="evenodd" d="m1064.7 445.3c-2.8-1.5-5-3.6-6.5-6.2-1.6-2.6-2.4-5.6-2.4-8.9 0-3.3 0.8-6.2 2.4-8.9 1.6-2.6 3.8-4.7 6.5-6.2 2.8-1.5 5.9-2.2 9.4-2.2 3.5 0 6.6 0.7 9.4 2.2 2.8 1.5 5 3.6 6.5 6.2 1.6 2.6 2.4 5.6 2.4 8.9 0 3.3-0.8 6.2-2.4 8.9-1.6 2.6-3.8 4.7-6.5 6.2-2.8 1.5-5.9 2.2-9.4 2.2-3.5 0.1-6.6-0.7-9.4-2.2zm14.7-5.7c1.6-0.9 2.8-2.2 3.7-3.8 0.9-1.6 1.4-3.5 1.4-5.5 0-2.1-0.5-3.9-1.4-5.5-0.9-1.6-2.2-2.9-3.7-3.8-1.6-0.9-3.4-1.4-5.3-1.4-2 0-3.8 0.5-5.3 1.4-1.5 0.9-2.8 2.2-3.7 3.8-0.9 1.6-1.4 3.5-1.4 5.5 0 2.1 0.5 3.9 1.4 5.5 0.9 1.6 2.2 2.9 3.7 3.8 1.5 0.9 3.4 1.4 5.3 1.4 1.9 0 3.7-0.5 5.3-1.4z"/><path  d="m1129.2 413.6l-14.5 33.4h-7.6l-14.4-33.4h8.3l10.2 23.9 10.3-23.9z"/><path  d="m1132 413.6h7.7v33.4h-7.7z"/><path  d="m1170.2 429.8h7.1v13.6c-1.8 1.4-3.9 2.4-6.3 3.2-2.4 0.7-4.8 1.1-7.2 1.1-3.5 0-6.6-0.7-9.4-2.2-2.8-1.5-4.9-3.5-6.5-6.2-1.6-2.6-2.4-5.6-2.4-8.9 0-3.3 0.8-6.3 2.4-8.9 1.6-2.6 3.8-4.7 6.6-6.2 2.8-1.5 6-2.2 9.5-2.2 2.9 0 5.6 0.5 8 1.5 2.4 1 4.4 2.4 6 4.3l-5 4.6c-2.4-2.5-5.3-3.8-8.6-3.8-2.1 0-4 0.4-5.7 1.3-1.7 0.9-2.9 2.1-3.9 3.8-0.9 1.6-1.4 3.5-1.4 5.6 0 2.1 0.5 3.9 1.4 5.5 0.9 1.6 2.2 2.9 3.8 3.8 1.6 0.9 3.5 1.4 5.6 1.4 2.2 0 4.2-0.5 6-1.4z"/><path fill-rule="evenodd" d="m1191.2 445.3c-2.8-1.5-5-3.6-6.5-6.2-1.6-2.6-2.4-5.6-2.4-8.9 0-3.3 0.8-6.2 2.4-8.9 1.6-2.6 3.8-4.7 6.5-6.2 2.8-1.5 5.9-2.2 9.4-2.2 3.5 0 6.6 0.7 9.4 2.2 2.8 1.5 4.9 3.6 6.5 6.2 1.6 2.6 2.4 5.6 2.4 8.9 0 3.3-0.8 6.2-2.4 8.9-1.6 2.6-3.8 4.7-6.5 6.2-2.8 1.5-5.9 2.2-9.4 2.2-3.5 0.1-6.6-0.7-9.4-2.2zm14.8-5.7c1.6-0.9 2.8-2.2 3.7-3.8 0.9-1.6 1.4-3.5 1.4-5.5 0-2.1-0.5-3.9-1.4-5.5-0.9-1.6-2.2-2.9-3.7-3.8-1.6-0.9-3.4-1.4-5.3-1.4-2 0-3.8 0.5-5.3 1.4-1.5 0.9-2.8 2.2-3.7 3.8-0.9 1.6-1.4 3.5-1.4 5.5 0 2.1 0.5 3.9 1.4 5.5 0.9 1.6 2.2 2.9 3.7 3.8 1.5 0.9 3.4 1.4 5.3 1.4 1.9 0 3.7-0.5 5.3-1.4z"/><path class="a" d="m989.9 429.7h-646c-1.7-5.2-6.5-9-12.3-9-7.1 0-12.9 5.8-12.9 12.9 0 7.1 5.8 12.9 12.9 12.9 5.7 0 10.6-3.8 12.3-9h646z"/><path class="a" d="m289.2 604l-252.1-145.5v-291.1l252.1-145.5 252.1 145.5v74h-29.3v-57.1l-222.8-128.6-222.8 128.6v257.2l222.8 128.7 198.7-114.8 14.7 25.4z"/><path class="b" d="m138.6 242.5v157.4l150.6 87v34.8l-180.8-104.4v-192.2z"/><path class="c" d="m439.8 226l-150.6-87-132.1 76.2-30.2-17.4 162.3-93.7 180.8 104.4z"/><path class="d" d="m184 260.6v113.1l105.2 60.7v24.4l-126.3-72.9v-137.5z"/><path fill-rule="evenodd" class="d" d="m291.2 462.4l-130.4-75.3v-142.3l25.2 14.6v113.1l105.2 60.8zm-126.3-77.7l122.2 70.6v-19.6l-105.2-60.8v-113.1l-17-9.8z"/><path class="e" d="m394.4 252.2l-105.2-60.8-92.3 53.3-21.1-12.2 113.4-65.4 126.3 72.9z"/><path fill-rule="evenodd" class="e" d="m394.4 254.6l-105.2-60.8-92.3 53.2-25.2-14.6 117.5-67.8 130.4 75.4zm-105.2-65.5l105.2 60.8 17-9.8-122.2-70.6-109.3 63 17 9.8z"/></svg>